<svg width="56" height="41" viewBox="0 0 56 41" fill="none" xmlns="http://www.w3.org/2000/svg">
<path d="M2.00002 1C6.30497 0.900649 10.6093 0.828307 14.9151 0.780273C16.3777 0.760237 17.8403 0.732999 19.3028 0.698242C21.413 0.649368 23.5221 0.626953 25.6328 0.609375C26.9001 0.588428 28.1674 0.56748 29.4732 0.545898C33.6309 1.08123 35.7527 2.40339 39 5C40.3985 7 40.3985 7 41.375 9C43.6402 12.9714 45.9093 14.4051 50.1328 16.0156C52.6028 17.3178 53.6172 18.5769 55 21C55.3633 23.6914 55.3633 23.6914 55.3125 26.5625C55.3086 27.5125 55.3048 28.4626 55.3008 29.4414C55 32 55 32 53 35C49.875 35.1875 49.875 35.1875 47 35C46.7216 35.9591 46.7216 35.9591 46.4375 36.9375C45 39 45 39 41.625 39.9375C38 40 38 40 35.5625 38.6875C34 37 34 37 34 35C30.04 35 26.08 35 22 35C21.34 36.32 20.68 37.64 20 39C16.6875 40.0625 16.6875 40.0625 13 40C10.375 37.6875 10.375 37.6875 8.00002 35C5.40086 33.8097 5.40086 33.8097 3.00002 33C0.209377 30.2094 0.710754 28.2255 0.677751 24.4121C0.682585 23.1253 0.682585 23.1253 0.687516 21.8125C0.671403 20.974 0.65529 20.1354 0.638688 19.2715C0.634375 13.7467 1.47591 9.92168 4.00002 5C3.01002 4.67 2.02002 4.34 1.00002 4C1.33002 3.01 1.66002 2.02 2.00002 1ZM6.93752 7.25C5.89572 10.1806 5.89572 10.1806 5.00002 14C9.62002 14 14.24 14 19 14C19 11.03 19 8.06 19 5C12.3035 4.11104 12.3035 4.11104 6.93752 7.25ZM22 5C22 7.97 22 10.94 22 14C27.61 14 33.22 14 39 14C36.7203 8.71677 36.7203 8.71677 33 5C30.2576 4.6373 30.2576 4.6373 27.3125 4.8125C26.3186 4.83957 25.3248 4.86664 24.3008 4.89453C23.1619 4.94674 23.1619 4.94674 22 5ZM5.00002 17C5.00002 21.29 5.00002 25.58 5.00002 30C6.32002 30.33 7.64002 30.66 9.00002 31C9.59814 30.34 10.1963 29.68 10.8125 29C13 27 13 27 16.625 27.0625C20 28 20 28 22 31C24.753 31.5181 24.753 31.5181 27.875 31.4375C29.449 31.4665 29.449 31.4665 31.0547 31.4961C34.6451 30.8913 35.5693 29.5955 38 27C41.625 27.0625 41.625 27.0625 45 28C45.66 28.99 46.32 29.98 47 31C48.32 31 49.64 31 51 31C51.0813 29.5634 51.1394 28.1256 51.1875 26.6875C51.2223 25.887 51.2571 25.0865 51.293 24.2617C51.1779 21.9691 51.1779 21.9691 49.8008 20.332C44.8607 16.6779 40.0907 16.7292 34.1992 16.8047C33.3629 16.8075 32.5265 16.8103 31.6648 16.8133C29.0055 16.8244 26.3466 16.8495 23.6875 16.875C21.8796 16.885 20.0716 16.8942 18.2637 16.9023C13.8423 16.9243 9.42123 16.9588 5.00002 17ZM14 30C13.67 31.65 13.34 33.3 13 35C14.32 35.33 15.64 35.66 17 36C17.33 34.35 17.66 32.7 18 31C16.68 30.67 15.36 30.34 14 30ZM39 30C38.67 31.65 38.34 33.3 38 35C39.32 35.33 40.64 35.66 42 36C42.33 34.35 42.66 32.7 43 31C41.68 30.67 40.36 30.34 39 30Z" fill="white"/>
</svg>
