<svg width="54" height="39" viewBox="0 0 54 39" fill="none" xmlns="http://www.w3.org/2000/svg">
<g clip-path="url(#clip0_649_30)">
<path d="M1.00002 0C5.30497 -0.0993509 9.6093 -0.171693 13.9151 -0.219727C15.3777 -0.239763 16.8403 -0.267001 18.3028 -0.301758C20.413 -0.350632 22.5221 -0.373047 24.6328 -0.390625C25.9001 -0.411572 27.1674 -0.43252 28.4732 -0.454102C32.6309 0.0812258 34.7527 1.40339 38 4C39.3985 6 39.3985 6 40.375 8C42.6402 11.9714 44.9093 13.4051 49.1328 15.0156C51.6028 16.3178 52.6172 17.5769 54 20C54.3633 22.6914 54.3633 22.6914 54.3125 25.5625C54.3086 26.5125 54.3048 27.4626 54.3008 28.4414C54 31 54 31 52 34C48.875 34.1875 48.875 34.1875 46 34C45.7216 34.9591 45.7216 34.9591 45.4375 35.9375C44 38 44 38 40.625 38.9375C37 39 37 39 34.5625 37.6875C33 36 33 36 33 34C29.04 34 25.08 34 21 34C20.34 35.32 19.68 36.64 19 38C15.6875 39.0625 15.6875 39.0625 12 39C9.37502 36.6875 9.37502 36.6875 7.00002 34C4.40086 32.8097 4.40086 32.8097 2.00002 32C-0.790623 29.2094 -0.289246 27.2255 -0.322249 23.4121C-0.317415 22.1253 -0.317415 22.1253 -0.312484 20.8125C-0.328597 19.974 -0.34471 19.1354 -0.361312 18.2715C-0.365625 12.7467 0.475909 8.92168 3.00002 4C2.01002 3.67 1.02002 3.34 1.64807e-05 3C0.330016 2.01 0.660016 1.02 1.00002 0ZM5.93752 6.25C4.89572 9.18065 4.89572 9.18065 4.00002 13C8.62002 13 13.24 13 18 13C18 10.03 18 7.06 18 4C11.3035 3.11104 11.3035 3.11104 5.93752 6.25ZM21 4C21 6.97 21 9.94 21 13C26.61 13 32.22 13 38 13C35.7203 7.71677 35.7203 7.71677 32 4C29.2576 3.6373 29.2576 3.6373 26.3125 3.8125C25.3186 3.83957 24.3248 3.86664 23.3008 3.89453C22.1619 3.94674 22.1619 3.94674 21 4ZM4.00002 16C4.00002 20.29 4.00002 24.58 4.00002 29C5.32002 29.33 6.64002 29.66 8.00002 30C8.59814 29.34 9.19627 28.68 9.81252 28C12 26 12 26 15.625 26.0625C19 27 19 27 21 30C23.753 30.5181 23.753 30.5181 26.875 30.4375C28.449 30.4665 28.449 30.4665 30.0547 30.4961C33.6451 29.8913 34.5693 28.5955 37 26C40.625 26.0625 40.625 26.0625 44 27C44.66 27.99 45.32 28.98 46 30C47.32 30 48.64 30 50 30C50.0813 28.5634 50.1394 27.1256 50.1875 25.6875C50.2223 24.887 50.2571 24.0865 50.293 23.2617C50.1779 20.9691 50.1779 20.9691 48.8008 19.332C43.8607 15.6779 39.0907 15.7292 33.1992 15.8047C32.3629 15.8075 31.5265 15.8103 30.6648 15.8133C28.0055 15.8244 25.3466 15.8495 22.6875 15.875C20.8796 15.885 19.0716 15.8942 17.2637 15.9023C12.8423 15.9243 8.42123 15.9588 4.00002 16ZM13 29C12.67 30.65 12.34 32.3 12 34C13.32 34.33 14.64 34.66 16 35C16.33 33.35 16.66 31.7 17 30C15.68 29.67 14.36 29.34 13 29ZM38 29C37.67 30.65 37.34 32.3 37 34C38.32 34.33 39.64 34.66 41 35C41.33 33.35 41.66 31.7 42 30C40.68 29.67 39.36 29.34 38 29Z" fill="#FEBC30"/>
</g>
<defs>
<clipPath id="clip0_649_30">
<rect width="54" height="39" fill="white"/>
</clipPath>
</defs>
</svg>
