<?xml version="1.0" encoding="UTF-8"?>
<svg version="1.1" xmlns="http://www.w3.org/2000/svg" width="80" height="80">
<path d="M0 0 C0.78761719 0.44730469 1.57523438 0.89460937 2.38671875 1.35546875 C11.30433941 6.85343984 17.61159767 14.70675848 20.54638672 24.8972168 C22.65910063 34.69097619 22.06290176 46.30058676 17 55 C16.55269531 55.78761719 16.10539062 56.57523438 15.64453125 57.38671875 C10.45835829 65.79860787 3.40830705 71.72924506 -6 75 C-10.455 75.495 -10.455 75.495 -15 76 C-15 66.76 -15 57.52 -15 48 C-11.37 47.67 -7.74 47.34 -4 47 C-3.34 43.37 -2.68 39.74 -2 36 C-6.29 36 -10.58 36 -15 36 C-14.3829709 26.4977518 -14.3829709 26.4977518 -12.64453125 24.23828125 C-9.01117375 21.50247524 -5.35822031 21.91776943 -1 22 C-1 18.7 -1 15.4 -1 12 C-11.87949098 11.47535725 -11.87949098 11.47535725 -22 15 C-26.0565521 19.86786252 -27.09620542 23.99244343 -27.5625 30.1875 C-27.64628906 31.27417969 -27.73007812 32.36085937 -27.81640625 33.48046875 C-27.90728516 34.72763672 -27.90728516 34.72763672 -28 36 C-30.64 36 -33.28 36 -36 36 C-36 39.96 -36 43.92 -36 48 C-33.36 48 -30.72 48 -28 48 C-28 56.91 -28 65.82 -28 75 C-37.94847434 73.34192094 -46.22508387 68.0647636 -52.50390625 60.08984375 C-53.82195849 58.11079815 -54.9369311 56.12613781 -56 54 C-56.3196875 53.38125 -56.639375 52.7625 -56.96875 52.125 C-60.6966985 43.28838133 -60.72641036 30.38394272 -57.375 21.4375 C-56.63613935 19.93126128 -55.84388092 18.45001211 -55 17 C-54.55269531 16.21238281 -54.10539062 15.42476562 -53.64453125 14.61328125 C-48.14656016 5.69566059 -40.29324152 -0.61159767 -30.1027832 -3.54638672 C-20.30902381 -5.65910063 -8.69941324 -5.06290176 0 0 Z " fill="#FFFFFF" transform="translate(59,4)"/>
</svg>
