<svg width="60" height="60" viewBox="0 0 60 60" fill="none" xmlns="http://www.w3.org/2000/svg">
<path d="M34.5625 2.5C37 3 37 3 38.875 4.0625C40.7067 7.21702 39.8089 9.53314 39 13C38.1079 15.4055 37.0921 17.6733 36 20C37.0312 20.0619 38.0625 20.1238 39.125 20.1875C43.9821 21.2059 45.5267 22.5267 49 26C51.5622 30.25 51.6473 34.1573 51 39C49.2402 44.3004 46.1198 46.7992 41.5508 49.7344C39.1354 51.7056 38.6206 54.0351 38 57C36.515 56.505 36.515 56.505 35 56C34.6585 52.3294 34.6995 50.4786 36.6875 47.3125C39 45 39 45 41.625 43.4375C44.2247 41.864 44.9403 40.7936 46 38C43.1328 38.5734 42.1385 38.8615 40 41C36.083 41.4352 33.8476 41.5509 30.5 39.375C29 37 29 37 29 33.9375C30.1439 30.5774 30.8493 29.5754 34 28C36.4375 27.5625 36.4375 27.5625 39 28C41.8125 30 41.8125 30 44 32C44.66 31.67 45.32 31.34 46 31C43.454 27.4762 43.454 27.4762 40 25C37.6681 24.7304 35.3368 24.5549 32.9961 24.3789C32.008 24.1913 32.008 24.1913 31 24C30.67 23.34 30.34 22.68 30 22C30.9076 19.4027 31.8707 16.9055 32.9375 14.375C33.2282 13.6686 33.5189 12.9622 33.8184 12.2344C34.5387 10.4867 35.2685 8.74298 36 7C35.01 7 34.02 7 33 7C32.7731 7.78375 32.5463 8.5675 32.3125 9.375C30.5934 14.123 28.3192 18.521 26 23C24.68 23 23.36 23 22 23C22 18.71 22 14.42 22 10C21.67 10 21.34 10 21 10C20.67 16.6 20.34 23.2 20 30C18.68 30 17.36 30 16 30C16 26.37 16 22.74 16 19C15.34 19.33 14.68 19.66 14 20C13.611 29.2176 13.3676 37.0006 17.1094 45.6172C18.4512 49.2072 18.286 52.2104 18 56C16.68 56 15.36 56 14 56C13.8904 55.2987 13.7809 54.5975 13.668 53.875C13.5094 52.9262 13.3509 51.9775 13.1875 51C13.0367 50.0719 12.8859 49.1438 12.7305 48.1875C12.1436 45.6266 11.4504 43.5976 10.4492 41.2031C8.69695 36.6879 8.55298 32.5511 8.625 27.75C8.6134 26.9611 8.6018 26.1722 8.58984 25.3594C8.60729 21.9162 8.7178 19.5644 10.2734 16.4531C12 15 12 15 16 15C16.33 12.36 16.66 9.72 17 7C19.6875 5.8125 19.6875 5.8125 23 5C25.875 6.375 25.875 6.375 28 8C28.5569 7.175 29.1137 6.35 29.6875 5.5C32 3 32 3 34.5625 2.5ZM35 32C34.34 33.32 33.68 34.64 33 36C35.475 36.495 35.475 36.495 38 37C38.66 36.01 39.32 35.02 40 34C39.34 33.34 38.68 32.68 38 32C37.01 32 36.02 32 35 32Z" fill="white"/>
</svg>
