<?xml version="1.0" encoding="UTF-8"?>
<svg version="1.1" xmlns="http://www.w3.org/2000/svg" width="80" height="80">
<path d="M0 0 C0.96520065 -0.00524185 1.93040131 -0.0104837 2.92485046 -0.0158844 C4.95957481 -0.0222841 6.99433626 -0.02099431 9.02905273 -0.01245117 C12.11705603 -0.00396032 15.20319556 -0.03270113 18.29101562 -0.06445312 C20.2773432 -0.06606603 22.26367401 -0.0654859 24.25 -0.0625 C25.61612175 -0.07935097 25.61612175 -0.07935097 27.00984192 -0.09654236 C33.93883921 -0.02247477 40.90523566 1.27988358 46.44673157 5.73927307 C52.43695944 12.31866039 53.28567249 20.0439793 53.2578125 28.48828125 C53.26305435 29.42987091 53.2682962 30.37146057 53.2736969 31.34158325 C53.28008819 33.32325256 53.27881784 35.30495995 53.27026367 37.28662109 C53.26176188 40.29334168 53.29054284 43.29815442 53.32226562 46.3046875 C53.3238783 48.24088485 53.32329883 50.17708553 53.3203125 52.11328125 C53.33154648 52.99901825 53.34278046 53.88475525 53.35435486 54.79733276 C53.27926606 61.63577403 51.95797027 68.63988925 47.48313904 74.05709839 C40.84064362 79.98892374 34.1463898 80.89439775 25.6484375 80.8671875 C24.68323685 80.87242935 23.71803619 80.8776712 22.72358704 80.8830719 C20.68886269 80.8894716 18.65410124 80.88818181 16.61938477 80.87963867 C13.53138147 80.87114782 10.44524194 80.89988863 7.35742188 80.93164062 C5.3710943 80.93325353 3.38476349 80.9326734 1.3984375 80.9296875 C0.48768967 80.94092148 -0.42305817 80.95215546 -1.36140442 80.96372986 C-8.27067588 80.88987313 -15.31974838 79.62077809 -20.79829407 75.09251404 C-26.78617674 68.39230268 -27.64269183 61.61162906 -27.64453125 53.0390625 C-27.65214478 52.0516658 -27.6597583 51.0642691 -27.66760254 50.04695129 C-27.67836957 47.96516436 -27.68127052 45.88332356 -27.67675781 43.80151367 C-27.67578731 40.64083249 -27.7174116 37.48259585 -27.76171875 34.32226562 C-27.76692805 32.29036959 -27.76961391 30.25846521 -27.76953125 28.2265625 C-27.78592651 27.29394089 -27.80232178 26.36131927 -27.81921387 25.4004364 C-27.73712463 17.48206796 -25.39662763 10.73919924 -19.80078125 4.99609375 C-12.9728428 0.93184467 -7.86103301 -0.02517085 0 0 Z M-16.48828125 13.93359375 C-18.69231612 17.1988306 -19.3004551 19.68259906 -19.33691406 23.53442383 C-19.34652161 24.35570267 -19.35612915 25.17698151 -19.36602783 26.02314758 C-19.37027771 26.90754013 -19.37452759 27.79193268 -19.37890625 28.703125 C-19.38460632 29.616884 -19.3903064 30.53064301 -19.3961792 31.47209167 C-19.40562543 33.40626875 -19.41216168 35.3404619 -19.41601562 37.2746582 C-19.42570998 40.22440911 -19.45673223 43.17345982 -19.48828125 46.12304688 C-19.49481273 48.00390212 -19.50006263 49.88476234 -19.50390625 51.765625 C-19.51625305 52.64394485 -19.52859985 53.52226471 -19.5413208 54.42720032 C-19.52291887 59.52104549 -19.01423432 63.0255185 -16.17578125 67.43359375 C-12.30601434 71.01312814 -9.32707655 72.54501323 -4.07495117 72.59472656 C-2.84303291 72.60913788 -2.84303291 72.60913788 -1.58622742 72.62384033 C-0.70183487 72.62809021 0.18255768 72.63234009 1.09375 72.63671875 C2.007509 72.64241882 2.92126801 72.6481189 3.86271667 72.6539917 C5.79689375 72.66343793 7.7310869 72.66997418 9.6652832 72.67382812 C12.61503411 72.68352248 15.56408482 72.71454473 18.51367188 72.74609375 C20.39452712 72.75262523 22.27538734 72.75787513 24.15625 72.76171875 C25.03456985 72.77406555 25.91288971 72.78641235 26.81782532 72.7991333 C31.91167049 72.78073137 35.4161435 72.27204682 39.82421875 69.43359375 C43.40375314 65.56382684 44.93563823 62.58488905 44.98535156 57.33276367 C44.99495911 56.51148483 45.00456665 55.69020599 45.01446533 54.84403992 C45.01871521 53.95964737 45.02296509 53.07525482 45.02734375 52.1640625 C45.03304382 51.2503035 45.0387439 50.33654449 45.0446167 49.39509583 C45.05406293 47.46091875 45.06059918 45.5267256 45.06445312 43.5925293 C45.07414748 40.64277839 45.10516973 37.69372768 45.13671875 34.74414062 C45.14325023 32.86328538 45.14850013 30.98242516 45.15234375 29.1015625 C45.17086395 27.78408272 45.17086395 27.78408272 45.1897583 26.43998718 C45.17135637 21.34614201 44.66267182 17.841669 41.82421875 13.43359375 C37.95445184 9.85405936 34.97551405 8.32217427 29.72338867 8.27246094 C28.49147041 8.25804962 28.49147041 8.25804962 27.23466492 8.24334717 C26.35027237 8.23909729 25.46587982 8.23484741 24.5546875 8.23046875 C23.6409285 8.22476868 22.72716949 8.2190686 21.78572083 8.2131958 C19.85154375 8.20374957 17.9173506 8.19721332 15.9831543 8.19335938 C13.03340339 8.18366502 10.08435268 8.15264277 7.13476562 8.12109375 C5.25391038 8.11456227 3.37305016 8.10931237 1.4921875 8.10546875 C0.61386765 8.09312195 -0.26445221 8.08077515 -1.16938782 8.0680542 C-7.55429183 8.09112018 -11.97851308 9.0581687 -16.48828125 13.93359375 Z " fill="#FFFFFF" transform="translate(27.17578125,-0.43359375)"/>
<path d="M0 0 C4.50503185 3.30626801 8.5369245 7.81736909 9.8203125 13.3359375 C10.5814943 20.18657369 9.96102577 25.69391299 5.8203125 31.3359375 C0.86874985 36.61603985 -3.69962371 39.35520268 -10.9921875 39.7109375 C-17.07032773 39.5574035 -21.4898755 37.85838342 -25.9375 33.6875 C-30.97740283 28.11195533 -32.67830814 23.41736032 -32.48828125 15.89453125 C-31.77686297 9.99606326 -29.09548315 5.89601261 -24.7421875 1.9609375 C-17.28934929 -3.82523225 -8.35089852 -4.76711211 0 0 Z M-21.1796875 9.3359375 C-23.81426545 12.87615162 -24.40880014 15.58825594 -24.1796875 19.8984375 C-23.49066471 24.3960148 -21.83078995 26.53392865 -18.1796875 29.3359375 C-14.35985723 31.62467878 -11.68893758 31.54239639 -7.3671875 30.9453125 C-3.26054952 29.80132049 -1.16275859 26.97664925 0.953125 23.4453125 C2.48681865 19.71470632 1.88397185 16.15420184 0.8203125 12.3359375 C-2.53862273 8.06918193 -5.61806639 5.67748698 -10.9921875 4.9609375 C-15.13012297 5.44775344 -17.94578243 6.72111753 -21.1796875 9.3359375 Z " fill="#FFFFFF" transform="translate(51.1796875,21.6640625)"/>
<path d="M0 0 C3.1875 0.875 3.1875 0.875 6 2 C6.92054342 5.01268757 7.27861489 6.42729162 5.875 9.3125 C4 11 4 11 1.5 11.4375 C-1 11 -1 11 -2.875 9.875 C-4 8 -4 8 -3.875 4.9375 C-3 2 -3 2 0 0 Z " fill="#FFFFFF" transform="translate(60,13)"/>
</svg>
