<svg width="60" height="60" viewBox="0 0 60 60" fill="none" xmlns="http://www.w3.org/2000/svg">
<path d="M45.7539 8.09761C50.0124 11.2461 52.5464 14.9771 54 20C55.1378 27.67 54.6118 33.9055 50.1914 40.371C36.9584 56.246 36.9584 56.246 30.375 57.5C25.2044 56.7339 22.6287 53.581 19 50C17.9539 49.0448 17.9539 49.0448 16.8867 48.0703C10.0788 41.6854 5.78013 36.0091 5.4375 26.4375C5.77428 18.8333 7.69628 13.898 13.25 8.68745C23.6048 0.619032 34.9367 1.32785 45.7539 8.09761ZM12.1992 16.0195C9.64889 20.2313 8.6658 24.3217 9.27734 29.2226C11.7904 38.5358 19.1863 45.5232 26.043 51.9179C27.9869 53.214 27.9869 53.214 30.4609 52.8984C38.6 50.0184 44.9463 41.3493 49.1016 34.0703C51.2738 29.3669 51.2433 25.462 49.9883 20.4648C47.7096 14.7817 43.856 11.1206 38.6875 7.99995C28.0844 5.12454 19.0872 7.16886 12.1992 16.0195Z" fill="white"/>
<path d="M34 16.9999C37.2561 18.8944 39.3488 20.3039 40.7305 23.9022C41.5049 27.8969 41.1651 29.6815 39.25 33.3749C36.2678 36.8541 34.7847 37.9098 30.1875 38.4374C26.7525 38.3297 25.7234 37.839 22.5625 35.9999C19.8225 32.7921 18.9912 31.1113 18.7578 26.996C19.1701 23.5977 20.8201 21.5431 23 18.9999C26.7112 16.5257 29.6987 16.2289 34 16.9999ZM24.5625 23.1874C22.7747 25.8464 22.7747 25.8464 23.0625 28.6249C24.0926 31.2345 24.6494 32.4599 27 33.9999C29.9572 34.6667 29.9572 34.6667 33 33.9999C35.5715 31.9314 35.5715 31.9314 37 28.9999C36.9311 26.1051 36.3886 24.593 34.8125 22.1874C30.9282 19.6425 27.9093 20.1839 24.5625 23.1874Z" fill="white"/>
</svg>
