<?xml version="1.0" encoding="UTF-8"?>
<svg version="1.1" xmlns="http://www.w3.org/2000/svg" width="348" height="72">
<path d="M0 0 C3.33510287 1.79420091 5.55294108 3.59482712 6.7265625 7.24609375 C4.8515625 8.93359375 4.8515625 8.93359375 1.7265625 10.24609375 C-0.62109375 9.70703125 -0.62109375 9.70703125 -3.2109375 8.80859375 C-6.68326471 7.60464697 -8.00079764 7.19652287 -11.7109375 7.87109375 C-15.44512304 9.87480307 -16.84454871 10.89815756 -18.1484375 14.99609375 C-18.31013979 19.20035334 -17.36774966 21.61595267 -15.2734375 25.24609375 C-12.19875689 27.29588083 -10.41473658 27.25105161 -6.7109375 27.12109375 C-2.99941399 26.17634231 -1.64152529 25.18252261 0.7265625 22.24609375 C-0.3665625 22.34921875 -1.4596875 22.45234375 -2.5859375 22.55859375 C-3.8028125 22.45546875 -5.0196875 22.35234375 -6.2734375 22.24609375 C-8.65507942 19.40348888 -9.2734375 17.96204108 -9.2734375 14.24609375 C-6.48170695 14.21919271 -3.69023402 14.19930322 -0.8984375 14.18359375 C-0.104375 14.17521484 0.6896875 14.16683594 1.5078125 14.15820312 C7.5 14.1328125 7.5 14.1328125 9.7265625 15.24609375 C10.01600473 20.84197689 9.93543413 24.4327863 6.7265625 29.24609375 C2.37276728 33.50313797 -1.41153119 36.19485785 -7.62890625 36.27734375 C-13.52828988 35.92034625 -17.51240754 34.76925592 -22.2734375 31.24609375 C-27.10173599 25.0201299 -27.90982997 19.91882556 -27.2734375 12.24609375 C-25.49328011 6.80090645 -21.8851765 3.46382982 -17.2734375 0.24609375 C-11.88824664 -1.54896987 -5.4277785 -1.79993342 0 0 Z " fill="#FDFDFD" transform="translate(338.2734375,9.75390625)"/>
<path d="M0 0 C4.80313833 2.4772405 8.07898951 5.06261876 10.35546875 10.08984375 C11.71393816 15.74221647 11.88803029 20.89854647 9.49609375 26.26953125 C6.6369049 30.83248332 2.8732543 33.44337953 -2.01953125 35.52734375 C-8.76391565 36.57388616 -14.84845654 35.9099839 -20.64453125 32.08984375 C-25.19328465 27.33432883 -27.37740254 23.8056523 -28.01953125 17.27734375 C-27.85121909 11.34153499 -25.39978916 6.75733876 -21.14453125 2.71484375 C-14.51910929 -1.59168052 -7.66368541 -2.63757563 0 0 Z M-15.64453125 9.08984375 C-18.55589155 11.62554465 -18.64148301 13.0662199 -19.14453125 16.96484375 C-18.99284575 20.34616637 -18.4542277 21.41692798 -16.64453125 24.52734375 C-13.40391065 27.29537385 -11.71966234 28.04292064 -7.5703125 28.26171875 C-3.69107542 27.91549881 -1.53289485 25.94757412 1.16796875 23.33984375 C2.90793303 20.04306933 2.79953863 17.76927986 2.35546875 14.08984375 C0.43024757 10.00837484 -0.8600119 8.45990005 -4.95703125 6.52734375 C-9.513644 5.98672868 -11.69697126 6.8124053 -15.64453125 9.08984375 Z " fill="#FDFDFD" transform="translate(255.64453125,9.91015625)"/>
<path d="M0 0 C0.88236328 -0.02900391 1.76472656 -0.05800781 2.67382812 -0.08789062 C8.57737974 -0.14461359 13.68834797 0.53741999 18.4375 4.3125 C20.74026835 8.01336093 20.81762228 10.97910602 20.4375 15.3125 C18.2375 19.9125 18.2375 19.9125 15.4375 21.3125 C16.16126457 24.80653583 17.50035206 27.83248905 19 31.0625 C19.68255859 32.53976563 19.68255859 32.53976563 20.37890625 34.046875 C20.72824219 34.79453125 21.07757813 35.5421875 21.4375 36.3125 C18.31166455 36.80282713 15.54239119 37.00016047 12.4375 36.3125 C9.54725416 33.42225416 8.05845194 29.83934287 6.53515625 26.09375 C6.17292969 25.5059375 5.81070313 24.918125 5.4375 24.3125 C1.87543339 23.49379815 1.87543339 23.49379815 -1.5625 23.3125 C-1.5625 27.6025 -1.5625 31.8925 -1.5625 36.3125 C-4.5325 36.3125 -7.5025 36.3125 -10.5625 36.3125 C-10.5625 29.7125 -10.5625 23.1125 -10.5625 16.3125 C-1.1875 15.875 -1.1875 15.875 1.76318359 15.74438477 C2.91294678 15.6872229 2.91294678 15.6872229 4.0859375 15.62890625 C4.87145996 15.59224854 5.65698242 15.55559082 6.46630859 15.51782227 C8.51273496 15.421609 8.51273496 15.421609 10.4375 14.3125 C10.4375 12.6625 10.4375 11.0125 10.4375 9.3125 C9.87240723 9.29268066 9.30731445 9.27286133 8.72509766 9.25244141 C6.17042003 9.15731764 3.61657459 9.04758942 1.0625 8.9375 C0.17304688 8.9065625 -0.71640625 8.875625 -1.6328125 8.84375 C-2.48359375 8.80507813 -3.334375 8.76640625 -4.2109375 8.7265625 C-4.99645996 8.6951416 -5.78198242 8.6637207 -6.59130859 8.63134766 C-8.5625 8.3125 -8.5625 8.3125 -10.5625 6.3125 C-10.75 3.75 -10.75 3.75 -10.5625 1.3125 C-8.28756367 -0.96243633 -3.04993534 0.03242313 0 0 Z " fill="#FDFDFD" transform="translate(203.5625,8.6875)"/>
<path d="M0 0 C3.18732254 -0.08797281 6.37432788 -0.14071341 9.5625 -0.1875 C10.45775391 -0.21263672 11.35300781 -0.23777344 12.27539062 -0.26367188 C18.8179468 -0.3355681 23.3472416 0.56482774 28.875 4.25 C30.73073952 7.13670592 30.88489868 9.6045111 31 13 C29.5477424 16.77586975 27.89018503 19.23971093 25 22 C25.433125 22.75925781 25.86625 23.51851562 26.3125 24.30078125 C26.869375 25.29464844 27.42625 26.28851563 28 27.3125 C28.556875 28.29863281 29.11375 29.28476562 29.6875 30.30078125 C31 33 31 33 31 36 C28.03 36 25.06 36 22 36 C20.99491199 34.21118264 19.99607264 32.41885304 19 30.625 C18.443125 29.62726562 17.88625 28.62953125 17.3125 27.6015625 C16 25 16 25 16 23 C13.36 23 10.72 23 8 23 C8 27.29 8 31.58 8 36 C5.36 36 2.72 36 0 36 C0 29.4 0 22.8 0 16 C9.375 15.5625 9.375 15.5625 12.32568359 15.43188477 C13.47544678 15.3747229 13.47544678 15.3747229 14.6484375 15.31640625 C15.43395996 15.27974854 16.21948242 15.24309082 17.02880859 15.20532227 C19.07523496 15.109109 19.07523496 15.109109 21 14 C20.67 12.35 20.34 10.7 20 9 C18.72382812 8.95101563 17.44765625 8.90203125 16.1328125 8.8515625 C14.46351928 8.77653809 12.79424954 8.70099012 11.125 8.625 C10.28324219 8.5940625 9.44148438 8.563125 8.57421875 8.53125 C7.76855469 8.49257813 6.96289062 8.45390625 6.1328125 8.4140625 C5.38918457 8.3826416 4.64555664 8.3512207 3.87939453 8.31884766 C2 8 2 8 0 6 C-0.125 2.875 -0.125 2.875 0 0 Z " fill="#FEFEFE" transform="translate(43,9)"/>
<path d="M0 0 C3.27182289 0.06998552 4.13682533 0.29604093 6.9375 2.25 C14.25 12.13175676 14.25 12.13175676 14.25 17.375 C14.91 17.375 15.57 17.375 16.25 17.375 C16.518125 16.66859375 16.78625 15.9621875 17.0625 15.234375 C18.29980955 12.25506384 19.71622551 9.46248281 21.25 6.625 C22.0234375 5.17867187 22.0234375 5.17867187 22.8125 3.703125 C24.25 1.375 24.25 1.375 26.25 0.375 C28.24960012 0.335008 30.25047242 0.33153201 32.25 0.375 C31.67592321 3.85143851 30.80304655 6.60134099 29.140625 9.703125 C28.50253906 10.90388672 28.50253906 10.90388672 27.8515625 12.12890625 C27.40554687 12.95261719 26.95953125 13.77632812 26.5 14.625 C26.06945312 15.43324219 25.63890625 16.24148437 25.1953125 17.07421875 C22.27372727 22.54125699 19.27519988 27.96473383 16.25 33.375 C12.73724474 32.20408158 12.59982766 31.71161933 10.98828125 28.55859375 C10.63032471 27.87079834 10.27236816 27.18300293 9.90356445 26.47436523 C9.46101318 25.59594971 9.01846191 24.71753418 8.5625 23.8125 C7.139375 21.028125 5.71625 18.24375 4.25 15.375 C3.92 22.305 3.59 29.235 3.25 36.375 C0.61 36.375 -2.03 36.375 -4.75 36.375 C-4.77465098 31.40877651 -4.79283649 26.44258834 -4.80493164 21.47631836 C-4.8099719 19.78555684 -4.81680405 18.09479971 -4.82543945 16.40405273 C-4.83751857 13.97899293 -4.84323123 11.55399056 -4.84765625 9.12890625 C-4.85281754 8.36848526 -4.85797882 7.60806427 -4.86329651 6.82460022 C-4.86349238 5.0076743 -4.81197277 3.19086873 -4.75 1.375 C-3.75 0.375 -3.75 0.375 0 0 Z " fill="#FDFDFD" transform="translate(83.75,8.625)"/>
<path d="M0 0 C0.99 1.485 0.99 1.485 2 3 C0.3125 5.0625 0.3125 5.0625 -2 7 C-4.92617631 6.78588954 -7.21433539 5.92855487 -10 5 C-12.33299825 4.96045766 -14.66708189 4.95598268 -17 5 C-17.33 6.32 -17.66 7.64 -18 9 C-16.90300781 9.21914063 -15.80601562 9.43828125 -14.67578125 9.6640625 C-13.22108642 9.98315685 -11.76667341 10.30353782 -10.3125 10.625 C-9.59126953 10.76550781 -8.87003906 10.90601563 -8.12695312 11.05078125 C-2.52236304 12.33036803 -0.18613954 14.19609194 3 19 C3.72631044 22.87365567 3.1781079 24.62152071 1.5 28.1875 C-2.47407885 32.65833871 -6.59845576 33.73801336 -12.4375 34.375 C-18.47917473 33.73903424 -24.41758759 32.18394177 -29 28 C-27.125 24.125 -27.125 24.125 -26 23 C-22.17838021 23.3899612 -18.56525828 24.09564902 -14.875 25.125 C-11.2880577 25.93495471 -9.44176362 26.07555113 -6 25 C-6.33 23.68 -6.66 22.36 -7 21 C-8.02480469 20.75765625 -9.04960937 20.5153125 -10.10546875 20.265625 C-11.466314 19.92775997 -12.82698197 19.58918031 -14.1875 19.25 C-15.19780273 19.01410156 -15.19780273 19.01410156 -16.22851562 18.7734375 C-20.67362628 17.64589724 -23.74943923 16.2566939 -27 13 C-27.96679958 9.45506821 -28.17092341 6.91871331 -27.5 3.3125 C-21.3680937 -6.14085554 -8.80697455 -4.32342387 0 0 Z " fill="#FDFDFD" transform="translate(152,12)"/>
<path d="M0 0 C3.6875 0.3125 3.6875 0.3125 5.72949219 1.91772461 C8.0687428 4.77878561 9.30089372 7.52188472 10.703125 10.94140625 C10.96381775 11.57231674 11.2245105 12.20322723 11.49310303 12.85325623 C12.038911 14.18008435 12.57987135 15.50891593 13.11621094 16.83959961 C13.938143 18.87659354 14.77634686 20.90629524 15.6171875 22.93554688 C19.6875 32.87452644 19.6875 32.87452644 19.6875 36.3125 C16.7175 36.3125 13.7475 36.3125 10.6875 36.3125 C9.18201631 32.52298756 7.68404686 28.73054969 6.1875 24.9375 C5.75824219 23.85726562 5.32898438 22.77703125 4.88671875 21.6640625 C4.27763672 20.1171875 4.27763672 20.1171875 3.65625 18.5390625 C3.27919922 17.58596191 2.90214844 16.63286133 2.51367188 15.65087891 C1.6875 13.3125 1.6875 13.3125 1.6875 11.3125 C1.0275 11.3125 0.3675 11.3125 -0.3125 11.3125 C-0.43939209 12.03719482 -0.56628418 12.76188965 -0.69702148 13.50854492 C-1.29359622 16.22637945 -2.11390772 18.60167773 -3.16015625 21.17578125 C-3.51787109 22.06201172 -3.87558594 22.94824219 -4.24414062 23.86132812 C-4.61732422 24.77333984 -4.99050781 25.68535156 -5.375 26.625 C-5.75205078 27.55634766 -6.12910156 28.48769531 -6.51757812 29.44726562 C-7.44533125 31.73728917 -8.37708001 34.02559996 -9.3125 36.3125 C-12.2825 36.3125 -15.2525 36.3125 -18.3125 36.3125 C-15.8922186 28.60711432 -12.85567367 21.23790705 -9.6875 13.8125 C-9.18476563 12.62140625 -8.68203125 11.4303125 -8.1640625 10.203125 C-3.99112101 0.37652085 -3.99112101 0.37652085 0 0 Z " fill="#FDFDFD" transform="translate(19.3125,8.6875)"/>
<path d="M0 0 C6 0 6 0 8.55078125 2.06640625 C11.23039066 5.27595436 13.75255404 8.54026127 16.1875 11.9375 C16.65583252 12.58485107 17.12416504 13.23220215 17.60668945 13.89916992 C18.58224272 15.24936968 19.55577579 16.60103125 20.52734375 17.95410156 C21.98841368 19.98390362 23.46157116 22.00442224 24.9375 24.0234375 C25.85456032 25.28617254 26.77124226 26.54918248 27.6875 27.8125 C28.12151123 28.40474365 28.55552246 28.9969873 29.00268555 29.60717773 C32 33.7713716 32 33.7713716 32 36 C28.46157424 36.71783637 25.51856769 36.8947215 22 36 C18.62398369 32.77743898 16.39024922 28.98374869 14 25 C12.84064527 23.26592241 11.6747438 21.5361895 10.5 19.8125 C9.675 18.554375 8.85 17.29625 8 16 C7.67 22.6 7.34 29.2 7 36 C4.69 36 2.38 36 0 36 C0 24.12 0 12.24 0 0 Z " fill="#FDFDFD" transform="translate(273,9)"/>
<path d="M0 0 C11.22 0 22.44 0 34 0 C32 7 32 7 31 8 C27.37 8 23.74 8 20 8 C20 17.24 20 26.48 20 36 C17.36 36 14.72 36 12 36 C12 26.76 12 17.52 12 8 C8.04 8 4.08 8 0 8 C0 5.36 0 2.72 0 0 Z " fill="#FEFEFE" transform="translate(157,9)"/>
<path d="M0 0 C1.65 0 3.3 0 5 0 C5 1.98 5 3.96 5 6 C7.87420123 3.28395285 7.87420123 3.28395285 10 0 C11.98 0 13.96 0 16 0 C14.125 4.75 14.125 4.75 13 7 C13.99 7.99 14.98 8.98 16 10 C16.18175781 9.44570313 16.36351562 8.89140625 16.55078125 8.3203125 C16.80214844 7.59585938 17.05351562 6.87140625 17.3125 6.125 C17.55613281 5.40570313 17.79976563 4.68640625 18.05078125 3.9453125 C19 2 19 2 22 0 C28.98591549 -0.67605634 28.98591549 -0.67605634 33 2 C33.66 2.66 34.32 3.32 35 4 C34.38545304 7.99455527 32.29353263 10.74466336 30 14 C32.31 14 34.62 14 37 14 C37 15.32 37 16.64 37 18 C34.77191841 18.10853983 32.54230068 18.18583307 30.3125 18.25 C29.07113281 18.29640625 27.82976562 18.3428125 26.55078125 18.390625 C22.46544831 17.94119343 20.90511754 16.82179677 18 14 C17.67 15.32 17.34 16.64 17 18 C15.68 18 14.36 18 13 18 C12.79375 17.05125 12.5875 16.1025 12.375 15.125 C11.29166667 11.70833333 11.29166667 11.70833333 7.875 10.625 C6.92625 10.41875 5.9775 10.2125 5 10 C5 12.64 5 15.28 5 18 C3.35 18 1.7 18 0 18 C0 12.06 0 6.12 0 0 Z M24 4 C21.71271266 5.83883881 21.71271266 5.83883881 21.875 8.625 C21.91625 9.40875 21.9575 10.1925 22 11 C23.32 11 24.64 11 26 11 C26.99 9.02 27.98 7.04 29 5 C26.60280568 4.32041397 26.60280568 4.32041397 24 4 Z " fill="#FEFEFE" transform="translate(291,54)"/>
<path d="M0 0 C1.65 0 3.3 0 5 0 C5.33 0.99 5.66 1.98 6 3 C7.03125 2.896875 8.0625 2.79375 9.125 2.6875 C12.86299169 2.98895094 15.09401334 3.46874022 17.91015625 6.0234375 C20.36376242 10.47334689 19.38821806 16.08976051 19 21 C17.35 21 15.7 21 14 21 C13.67 17.04 13.34 13.08 13 9 C11.68 8.67 10.36 8.34 9 8 C7.16567579 9.04133849 7.16567579 9.04133849 6 11 C5.42428504 13.50203648 5.42428504 13.50203648 5.3125 16.1875 C5.24675781 17.08855469 5.18101562 17.98960938 5.11328125 18.91796875 C5.07589844 19.60503906 5.03851563 20.29210937 5 21 C3.35 21 1.7 21 0 21 C-0.33 20.34 -0.66 19.68 -1 19 C-1.99 19.66 -2.98 20.32 -4 21 C-6.69921875 21.1953125 -6.69921875 21.1953125 -9.6875 21.125 C-11.17830078 21.09792969 -11.17830078 21.09792969 -12.69921875 21.0703125 C-13.45847656 21.04710938 -14.21773438 21.02390625 -15 21 C-15 19.35 -15 17.7 -15 16 C-11.7 16 -8.4 16 -5 16 C-5 15.34 -5 14.68 -5 14 C-5.9075 14.0825 -6.815 14.165 -7.75 14.25 C-11 14 -11 14 -13.4375 12.3125 C-15 10 -15 10 -14.875 7.375 C-14 5 -14 5 -12 3 C-9.31160615 2.73008094 -6.70858064 2.91262643 -4 3 C-4 4.32 -4 5.64 -4 7 C-5.98 7 -7.96 7 -10 7 C-9.20700294 9.17038477 -9.20700294 9.17038477 -7.15234375 9.6328125 C-6.42144531 9.79523437 -5.69054687 9.95765625 -4.9375 10.125 C-3.638125 10.41375 -2.33875 10.7025 -1 11 C-0.67 7.37 -0.34 3.74 0 0 Z " fill="#FDFDFD" transform="translate(271,51)"/>
<path d="M0 0 C1.65 0 3.3 0 5 0 C5 1.32 5 2.64 5 4 C6.794375 3.87625 6.794375 3.87625 8.625 3.75 C13.24934637 3.7170865 15.44232818 5.15386254 19 8 C19 6.35 19 4.7 19 3 C20.98 3 22.96 3 25 3 C25 9.27 25 15.54 25 22 C23.02 22 21.04 22 19 22 C18.505 19.525 18.505 19.525 18 17 C17.484375 17.639375 16.96875 18.27875 16.4375 18.9375 C13.24361231 21.64002035 11.15153123 21.92716612 7 22 C3.42612398 20.41161066 2.18910428 19.28365642 0 16 C-0.14245897 13.23344676 -0.18769445 10.57346694 -0.125 7.8125 C-0.11597656 7.06291016 -0.10695312 6.31332031 -0.09765625 5.54101562 C-0.07412578 3.69387346 -0.03825561 1.84689588 0 0 Z M7 8 C4.7508092 9.82703227 4.7508092 9.82703227 4.75 12.5 C4.7508092 15.17296773 4.7508092 15.17296773 7 17 C9.5 17.41666667 9.5 17.41666667 12 17 C14.33391203 14.21885944 14.33391203 14.21885944 13.625 11.3125 C13.41875 10.549375 13.2125 9.78625 13 9 C10.09926819 8.32198966 10.09926819 8.32198966 7 8 Z " fill="#FEFEFE" transform="translate(230,50)"/>
<path d="M0 0 C0.33 0 0.66 0 1 0 C1 11.55 1 23.1 1 35 C-1.64 35 -4.28 35 -7 35 C-7.82105762 21.59781338 -8.22785973 11.12440219 0 0 Z " fill="#FEFEFE" transform="translate(118,10)"/>
<path d="M0 0 C2.64 0 5.28 0 8 0 C8 10.56 8 21.12 8 32 C0.15307802 24.15307802 0.15307802 24.15307802 -0.34057617 20.43457031 C-0.32486572 19.49194336 -0.30915527 18.54931641 -0.29296875 17.578125 C-0.28330078 16.55332031 -0.27363281 15.52851563 -0.26367188 14.47265625 C-0.23853516 13.40917969 -0.21339844 12.34570312 -0.1875 11.25 C-0.17396484 10.17105469 -0.16042969 9.09210937 -0.14648438 7.98046875 C-0.11116584 5.3198058 -0.06184199 2.66015704 0 0 Z " fill="#FEFEFE" transform="translate(297,9)"/>
<path d="M0 0 C1.65 0 3.3 0 5 0 C5.33 1.65 5.66 3.3 6 5 C6.53625 4.175 7.0725 3.35 7.625 2.5 C10 0 10 0 13.25 -0.3125 C14.1575 -0.209375 15.065 -0.10625 16 0 C15.46375 0.7425 14.9275 1.485 14.375 2.25 C13.92125 3.1575 13.4675 4.065 13 5 C13.6237206 7.08235826 13.6237206 7.08235826 15 9 C16.54566807 12.43481794 17 14.12009033 17 18 C15.35 18 13.7 18 12 18 C11.6596875 16.576875 11.6596875 16.576875 11.3125 15.125 C10.30916286 11.80676612 10.30916286 11.80676612 7.375 10.625 C6.59125 10.41875 5.8075 10.2125 5 10 C5 12.64 5 15.28 5 18 C3.35 18 1.7 18 0 18 C0 12.06 0 6.12 0 0 Z " fill="#FEFEFE" transform="translate(329,54)"/>
</svg>
