<?xml version="1.0" encoding="UTF-8"?>
<svg version="1.1" xmlns="http://www.w3.org/2000/svg" width="80" height="80">
<path d="M0 0 C8.03668126 5.71763891 13.71802668 14.11719282 16.0390625 23.7421875 C18.04572047 35.94195764 15.89409184 46.68410745 9.26171875 57.0390625 C2.38797339 66.24927832 -7.18982033 71.59840852 -18.51953125 73.42578125 C-24.53072017 74.07134907 -29.3147064 73.29881543 -35.01953125 71.30078125 C-41.27806291 69.21215259 -45.31566011 69.47447819 -51.51953125 71.42578125 C-55.60600357 72.50228696 -59.25206843 73.42578125 -63.51953125 73.42578125 C-62.92632374 68.08691366 -61.64458781 63.20233849 -60.04296875 58.07421875 C-59.16502983 53.63210991 -60.59150116 50.14304386 -62.08203125 45.98828125 C-65.405214 35.00377079 -64.26841325 23.74067297 -59.078125 13.61328125 C-53.59142537 4.24388235 -45.27941126 -3.09917235 -34.6496582 -6.10253906 C-22.3303091 -8.83044536 -10.56015645 -6.59805124 0 0 Z M-50.33984375 13.64453125 C-55.61581566 21.49476965 -57.47335482 30.53439087 -55.83203125 39.86328125 C-55.11137684 42.80753379 -54.29249133 44.84622555 -52.83203125 47.55078125 C-51.03652776 51.4837889 -51.66270529 54.29435308 -52.51953125 58.42578125 C-52.70515625 59.41578125 -52.89078125 60.40578125 -53.08203125 61.42578125 C-53.22640625 62.08578125 -53.37078125 62.74578125 -53.51953125 63.42578125 C-52.93945312 63.26980469 -52.359375 63.11382812 -51.76171875 62.953125 C-45.31052288 61.3456488 -41.17873907 61.25946203 -34.95703125 63.98828125 C-26.59665034 67.21117618 -17.23023511 66.19444102 -9.08984375 62.8125 C-0.81567196 58.34847115 5.10548012 51.55074714 8.0859375 42.609375 C9.71974047 33.56684174 9.4407638 24.30024964 4.48046875 16.42578125 C4.06796875 15.7296875 3.65546875 15.03359375 3.23046875 14.31640625 C-1.26443525 7.52297179 -7.55504924 3.98325633 -15.01953125 1.05078125 C-28.76512456 -1.40378898 -41.34338798 2.67889417 -50.33984375 13.64453125 Z " fill="#FFFFFF" transform="translate(63.51953125,6.57421875)"/>
<path d="M0 0 C0.94875 0.04125 1.8975 0.0825 2.875 0.125 C3.57680531 1.5346347 4.26093958 2.95307641 4.9375 4.375 C5.32035156 5.16390625 5.70320313 5.9528125 6.09765625 6.765625 C7.24462371 10.24687295 6.28356145 12.18020165 4.875 15.4375 C4.875 18.8446811 5.73297887 19.41840793 8.0625 21.8125 C11.44289818 25.02209912 14.11079188 27.125 18.875 27.125 C20.58032323 25.18490478 20.58032323 25.18490478 21.875 23.125 C26.62981646 23.70134139 29.84548212 25.67568521 33.875 28.125 C32.45212487 34.40936516 32.45212487 34.40936516 30.3125 37.0625 C25.28978146 39.25189013 20.9604061 38.91312101 15.8671875 36.98828125 C5.0378092 31.81786379 -1.55400655 25.8601166 -7.125 15.125 C-8.42209743 10.72928095 -8.49296615 9.05367648 -6.8125 4.8125 C-3.88835878 0.15553435 -3.88835878 0.15553435 0 0 Z " fill="#FFFFFF" transform="translate(27.125,20.875)"/>
</svg>
