<svg width="60" height="60" viewBox="0 0 60 60" fill="none" xmlns="http://www.w3.org/2000/svg">
<path d="M47 5.00008C47.4375 7.06258 47.4375 7.06258 47 10.0001C45.2958 11.9521 43.4788 13.6436 41.5312 15.3516C39.6597 16.9914 39.6597 16.9914 40 20.0001C43.3468 19.4315 44.7512 18.4993 46.9375 15.9376C49.6499 13.0457 49.6499 13.0457 52.875 12.6251C53.9269 12.8107 53.9269 12.8107 55 13.0001C57.4141 17.8284 56.5743 25.1236 55.5391 30.3087C54.4579 33.266 53.0813 34.9359 50.625 36.8751C47 38.0001 47 38.0001 44.2812 37.8321C39.5627 37.616 35.8307 37.5795 31.9531 40.5885C29.0262 43.3548 26.2906 46.2362 23.645 49.2723C18.7606 54.7851 18.7606 54.7851 14.1992 56.0743C10.4704 55.9878 8.85937 55.3693 6 53.0001C4.03023 50.4931 4.00061 49.0495 3.96094 45.836C5.44717 40.3493 8.81322 38.0234 13 34.3751C20.0862 27.9402 20.0862 27.9402 22.3125 18.8751C22.2228 16.916 22.1209 14.9574 22 13.0001C23.3163 8.75869 24.1782 7.53601 27.875 5.12508C33.2337 3.166 41.8363 2.41825 47 5.00008ZM27 11.0001C25.3716 14.2569 25.732 17.7997 25.6875 21.3751C25.6585 22.1434 25.6295 22.9116 25.5996 23.7032C25.5596 27.2571 25.6508 29.4108 27.4883 32.5118C31.084 34.6424 34.4456 34.5443 38.5 34.4376C39.6389 34.4482 39.6389 34.4482 40.8008 34.4591C44.0852 34.4217 46.5575 34.2402 49.4688 32.6602C52.2425 29.653 52.113 26.7009 52.0625 22.8126C52.0535 21.9115 52.0445 21.0105 52.0352 20.0821C52.0236 19.395 52.012 18.708 52 18.0001C51.2556 18.6672 51.2556 18.6672 50.4961 19.3477C45.0135 23.9148 45.0135 23.9148 41.9102 24.1759C40 23.8751 40 23.8751 37 23.0001C36.2263 20.3472 35.7723 18.7067 36 16.0001C37.6743 13.0379 39.7336 10.5293 42 8.00008C33.9615 7.42353 33.9615 7.42353 27 11.0001ZM22 30.0001C19.8414 32.0506 17.6987 34.114 15.5625 36.1876C14.9508 36.7657 14.3392 37.3439 13.709 37.9395C11.1018 40.4891 9.24962 42.3148 7.98828 45.7774C7.79334 48.174 7.79334 48.174 9.625 50.3751C11.8261 52.2067 11.8261 52.2067 14.2227 52.0118C18.38 50.4974 20.814 47.6099 23.8125 44.4376C24.41 43.8221 25.0075 43.2065 25.623 42.5723C27.0913 41.0571 28.5469 39.5298 30 38.0001C29.2369 37.4226 28.4737 36.8451 27.6875 36.2501C25.338 34.283 23.7068 32.5153 22 30.0001Z" fill="white"/>
<path d="M13 44C13.99 44.33 14.98 44.66 16 45C15.67 45.99 15.34 46.98 15 48C14.01 48 13.02 48 12 48C12.33 46.68 12.66 45.36 13 44Z" fill="white"/>
</svg>
