<?xml version="1.0" encoding="UTF-8"?>
<svg version="1.1" xmlns="http://www.w3.org/2000/svg" width="80" height="80">
<path d="M0 0 C21.18007709 -1.7944964 21.18007709 -1.7944964 27.3515625 2.1328125 C29.59380293 4.97720937 31.29733897 7.80751056 33 11 C34.32259146 12.75343564 35.67466673 14.48523576 37.0625 16.1875 C38.04312995 17.45720454 39.02290302 18.72757467 40 20 C41.89635983 17.79211695 43.79210041 15.58370715 45.6875 13.375 C46.21794922 12.75753906 46.74839844 12.14007813 47.29492188 11.50390625 C48.08286133 10.58544922 48.08286133 10.58544922 48.88671875 9.6484375 C49.41483154 9.0404834 49.94294434 8.4325293 50.48706055 7.80615234 C52.00606172 6.037084 52.00606172 6.037084 53.28833008 4.21337891 C55.42872467 1.297129 56.49373925 0.0952812 60.11328125 -0.5859375 C61.16902344 -0.51632813 62.22476563 -0.44671875 63.3125 -0.375 C64.91544922 -0.29378906 64.91544922 -0.29378906 66.55078125 -0.2109375 C67.35902344 -0.14132813 68.16726562 -0.07171875 69 0 C64.23373974 10.63809636 53.91244753 19.5787995 46 28 C46.35336426 28.46946045 46.70672852 28.9389209 47.07080078 29.42260742 C52.88331229 37.15716564 58.61362058 44.95188088 64.34375 52.74755859 C65.79002131 54.71443642 67.23855503 56.67962323 68.6875 58.64453125 C69.409375 59.62808594 70.13125 60.61164063 70.875 61.625 C71.49117188 62.46289062 72.10734375 63.30078125 72.7421875 64.1640625 C74 66 74 66 74 67 C53.98560265 69.70398693 53.98560265 69.70398693 47.63574219 65.39599609 C43.72584751 61.44354088 40.80276833 56.88386214 38.15307617 52.01464844 C36.92370311 49.86669448 35.5187362 47.95137241 34 46 C30.21905568 47.26031477 29.25856275 48.88289348 26.8125 52 C26.01070312 52.98613281 25.20890625 53.97226562 24.3828125 54.98828125 C22.89562297 56.8679913 21.44546814 58.77834893 20.0546875 60.73046875 C15.48827045 66.73941504 15.48827045 66.73941504 10.83203125 67.5546875 C7.8317626 67.56172213 4.97128962 67.4011241 2 67 C3.70245032 62.87561142 6.60172935 59.75718093 9.5 56.4375 C10.02811279 55.82342285 10.55622559 55.2093457 11.1003418 54.57666016 C13.68967158 51.58208107 16.31464581 48.63870278 19.05078125 45.77734375 C19.51742188 45.28500244 19.9840625 44.79266113 20.46484375 44.28540039 C21.74287437 42.94786726 23.03702654 41.62579308 24.33203125 40.3046875 C26.24249994 38.21180926 26.24249994 38.21180926 25.77758789 36.09350586 C24.89966577 33.72986938 23.80293517 32.16533752 22.2265625 30.19921875 C21.65373535 29.47597412 21.0809082 28.75272949 20.49072266 28.00756836 C19.87503418 27.2419458 19.2593457 26.47632324 18.625 25.6875 C17.35252193 24.07942512 16.08171406 22.47002733 14.8125 20.859375 C14.17441406 20.05048828 13.53632813 19.24160156 12.87890625 18.40820312 C10.06264077 14.79858219 7.33172322 11.12968071 4.625 7.4375 C4.15529785 6.80094482 3.6855957 6.16438965 3.20166016 5.50854492 C0 1.12614358 0 1.12614358 0 0 Z M15 7 C17.79618889 12.18722928 20.94133897 16.65043618 24.6875 21.1875 C25.76703564 22.51578185 26.84514843 23.8452213 27.921875 25.17578125 C28.44845703 25.82627441 28.97503906 26.47676758 29.51757812 27.14697266 C32.2867287 30.60841088 34.91567157 34.17250169 37.55859375 37.73046875 C40.66844469 41.91112062 43.83569713 46.04800751 47 50.1875 C47.5767749 50.94337402 48.1535498 51.69924805 48.74780273 52.47802734 C49.28477783 53.18008301 49.82175293 53.88213867 50.375 54.60546875 C51.09816406 55.55135864 51.09816406 55.55135864 51.8359375 56.51635742 C52.92325036 57.96319405 52.92325036 57.96319405 54 59 C55.66617115 59.04063832 57.33388095 59.042721 59 59 C55.27006705 53.05099302 51.10849382 47.50363189 46.74414062 42.01269531 C42.32046444 36.43744963 37.99658012 30.78915546 33.6875 25.125 C33.01799316 24.24553711 32.34848633 23.36607422 31.65869141 22.45996094 C31.01206543 21.60950195 30.36543945 20.75904297 29.69921875 19.8828125 C29.07192871 19.06458008 28.44463867 18.24634766 27.79833984 17.40332031 C26.61706125 15.82464716 25.46988546 14.21975989 24.36181641 12.58886719 C23.60457275 11.48913574 23.60457275 11.48913574 22.83203125 10.3671875 C22.40253174 9.7160498 21.97303223 9.06491211 21.53051758 8.39404297 C20.01310788 6.72567582 20.01310788 6.72567582 17.32299805 6.78955078 C16.55640869 6.85899902 15.78981934 6.92844727 15 7 Z " fill="#FFFFFF" transform="translate(3,6)"/>
</svg>
